solid OpenSCAD_Model
  facet normal 1 -0 0
    outer loop
      vertex 12 -4 0.5
      vertex 12 4 -0.5
      vertex 12 4 0.5
    endloop
  endfacet
  facet normal 1 0 0
    outer loop
      vertex 12 4 -0.5
      vertex 12 -4 0.5
      vertex 12 -4 -0.5
    endloop
  endfacet
  facet normal -0 0 1
    outer loop
      vertex -5 1.75 0.5
      vertex 5 -1.75 0.5
      vertex 5 1.75 0.5
    endloop
  endfacet
  facet normal 0 0 1
    outer loop
      vertex 5 -1.75 0.5
      vertex -5 1.75 0.5
      vertex -5 -1.75 0.5
    endloop
  endfacet
  facet normal 0 0 1
    outer loop
      vertex 5 1.75 0.5
      vertex 12 4 0.5
      vertex 5 3.25 0.5
    endloop
  endfacet
  facet normal 0 0 1
    outer loop
      vertex 12 4 0.5
      vertex -5 3.25 0.5
      vertex 5 3.25 0.5
    endloop
  endfacet
  facet normal 0 0 1
    outer loop
      vertex -12 4 0.5
      vertex -5 1.75 0.5
      vertex -5 3.25 0.5
    endloop
  endfacet
  facet normal 0 0 1
    outer loop
      vertex -5 1.75 0.5
      vertex -12 4 0.5
      vertex -5 -1.75 0.5
    endloop
  endfacet
  facet normal 0 0 1
    outer loop
      vertex -12 -4 0.5
      vertex -5 -1.75 0.5
      vertex -12 4 0.5
    endloop
  endfacet
  facet normal -0 0 1
    outer loop
      vertex -12 4 0.5
      vertex -5 3.25 0.5
      vertex 12 4 0.5
    endloop
  endfacet
  facet normal 0 0 1
    outer loop
      vertex 12 4 0.5
      vertex 5 1.75 0.5
      vertex 12 -4 0.5
    endloop
  endfacet
  facet normal -0 0 1
    outer loop
      vertex 5 -1.75 0.5
      vertex 12 -4 0.5
      vertex 5 1.75 0.5
    endloop
  endfacet
  facet normal -0 0 1
    outer loop
      vertex 5 -3.25 0.5
      vertex 12 -4 0.5
      vertex 5 -1.75 0.5
    endloop
  endfacet
  facet normal -0 0 1
    outer loop
      vertex -5 -3.25 0.5
      vertex 12 -4 0.5
      vertex 5 -3.25 0.5
    endloop
  endfacet
  facet normal 0 0 1
    outer loop
      vertex -5 -3.25 0.5
      vertex -12 -4 0.5
      vertex 12 -4 0.5
    endloop
  endfacet
  facet normal 0 0 1
    outer loop
      vertex -5 -1.75 0.5
      vertex -12 -4 0.5
      vertex -5 -3.25 0.5
    endloop
  endfacet
  facet normal 0 0 -1
    outer loop
      vertex -12 -4 -0.5
      vertex 12 4 -0.5
      vertex 12 -4 -0.5
    endloop
  endfacet
  facet normal -0 0 -1
    outer loop
      vertex 12 4 -0.5
      vertex -12 -4 -0.5
      vertex -12 4 -0.5
    endloop
  endfacet
  facet normal -1 0 0
    outer loop
      vertex -12 -4 -0.5
      vertex -12 4 0.5
      vertex -12 4 -0.5
    endloop
  endfacet
  facet normal -1 -0 0
    outer loop
      vertex -12 4 0.5
      vertex -12 -4 -0.5
      vertex -12 -4 0.5
    endloop
  endfacet
  facet normal 0 1 -0
    outer loop
      vertex 12 4 -0.5
      vertex -12 4 0.5
      vertex 12 4 0.5
    endloop
  endfacet
  facet normal 0 1 0
    outer loop
      vertex -12 4 0.5
      vertex 12 4 -0.5
      vertex -12 4 -0.5
    endloop
  endfacet
  facet normal 0 -1 0
    outer loop
      vertex -12 -4 -0.5
      vertex 12 -4 0.5
      vertex -12 -4 0.5
    endloop
  endfacet
  facet normal 0 -1 -0
    outer loop
      vertex 12 -4 0.5
      vertex -12 -4 -0.5
      vertex 12 -4 -0.5
    endloop
  endfacet
  facet normal 1 -0 0
    outer loop
      vertex 5 1.75 4.5
      vertex 5 3.25 0.5
      vertex 5 3.25 4.5
    endloop
  endfacet
  facet normal 1 0 0
    outer loop
      vertex 5 3.25 0.5
      vertex 5 1.75 4.5
      vertex 5 1.75 0.5
    endloop
  endfacet
  facet normal -0 0 1
    outer loop
      vertex -5 3.25 4.5
      vertex 5 1.75 4.5
      vertex 5 3.25 4.5
    endloop
  endfacet
  facet normal 0 0 1
    outer loop
      vertex 5 1.75 4.5
      vertex -5 3.25 4.5
      vertex -5 1.75 4.5
    endloop
  endfacet
  facet normal -1 0 0
    outer loop
      vertex -5 1.75 0.5
      vertex -5 3.25 4.5
      vertex -5 3.25 0.5
    endloop
  endfacet
  facet normal -1 -0 0
    outer loop
      vertex -5 3.25 4.5
      vertex -5 1.75 0.5
      vertex -5 1.75 4.5
    endloop
  endfacet
  facet normal 0 1 -0
    outer loop
      vertex 5 3.25 0.5
      vertex -5 3.25 4.5
      vertex 5 3.25 4.5
    endloop
  endfacet
  facet normal 0 1 0
    outer loop
      vertex -5 3.25 4.5
      vertex 5 3.25 0.5
      vertex -5 3.25 0.5
    endloop
  endfacet
  facet normal 0 -1 0
    outer loop
      vertex -5 1.75 0.5
      vertex 5 1.75 4.5
      vertex -5 1.75 4.5
    endloop
  endfacet
  facet normal 0 -1 -0
    outer loop
      vertex 5 1.75 4.5
      vertex -5 1.75 0.5
      vertex 5 1.75 0.5
    endloop
  endfacet
  facet normal 1 -0 0
    outer loop
      vertex 5 -3.25 4.5
      vertex 5 -1.75 0.5
      vertex 5 -1.75 4.5
    endloop
  endfacet
  facet normal 1 0 0
    outer loop
      vertex 5 -1.75 0.5
      vertex 5 -3.25 4.5
      vertex 5 -3.25 0.5
    endloop
  endfacet
  facet normal -0 0 1
    outer loop
      vertex -5 -1.75 4.5
      vertex 5 -3.25 4.5
      vertex 5 -1.75 4.5
    endloop
  endfacet
  facet normal 0 0 1
    outer loop
      vertex 5 -3.25 4.5
      vertex -5 -1.75 4.5
      vertex -5 -3.25 4.5
    endloop
  endfacet
  facet normal -1 0 0
    outer loop
      vertex -5 -3.25 0.5
      vertex -5 -1.75 4.5
      vertex -5 -1.75 0.5
    endloop
  endfacet
  facet normal -1 -0 0
    outer loop
      vertex -5 -1.75 4.5
      vertex -5 -3.25 0.5
      vertex -5 -3.25 4.5
    endloop
  endfacet
  facet normal 0 1 -0
    outer loop
      vertex 5 -1.75 0.5
      vertex -5 -1.75 4.5
      vertex 5 -1.75 4.5
    endloop
  endfacet
  facet normal 0 1 0
    outer loop
      vertex -5 -1.75 4.5
      vertex 5 -1.75 0.5
      vertex -5 -1.75 0.5
    endloop
  endfacet
  facet normal 0 -1 0
    outer loop
      vertex -5 -3.25 0.5
      vertex 5 -3.25 4.5
      vertex -5 -3.25 4.5
    endloop
  endfacet
  facet normal 0 -1 -0
    outer loop
      vertex 5 -3.25 4.5
      vertex -5 -3.25 0.5
      vertex 5 -3.25 0.5
    endloop
  endfacet
endsolid OpenSCAD_Model
